<svg id="Layer_1" data-name="Layer 1" xmlns="http://www.w3.org/2000/svg" viewBox="0 0 512 512"><defs><style>.cls-1{fill:#707070;}</style></defs><title>uranus_style_5</title><path class="cls-1" d="M124.4,306.3c0-.16.22-.36-.05-.49-.9-.42-.66-.62,1.22-.63,2.44,0,5-.34,7.28.17.45.1,1,.3.88.43a20.6,20.6,0,0,1-1.91,2.28c-.31.33-1.06.41-2.47.36-3.36-.12-6.77-.21-10.16-.2-3.07,0-6-1-4.81-1.71a2.38,2.38,0,0,1,.73-.18l5.58-.69a13.72,13.72,0,0,0,1.84.64A13.71,13.71,0,0,0,124.4,306.3Zm-15.92,4.76c-.38-.74-2.53-.51-4-.64a3.62,3.62,0,0,0-2.44.39,8.8,8.8,0,0,1-2.23,1,7.5,7.5,0,0,1-2.09.11c-2.39-.53-4.8-.11-6.75-.14.45.39.88.73,1.25,1.08s.72.76,1.09,1.15c1.3,0,2.93-.15,4.31,0a25.77,25.77,0,0,0,5-.27c2.43-.21,5-.35,7.7-.53a6.06,6.06,0,0,0,.93-.66c.12-.12,0-.3-.28-.41C110.13,311.73,108.66,311.42,108.48,311.06Zm40.73-3.38a6.19,6.19,0,0,0,1.54-.18c2.32-.63,1.29-1.7-1.61-2.17-3.09-.5-6.39-.26-9.58-.37-.84,0-1.72,0-2.57,0l-.29.19,8.09,1.93.5-.1-.5.47C146.36,307.53,147.77,307.63,149.21,307.68Zm52.1,6.32a4,4,0,0,1,1.23,0c.57.15,1-.13,1.41-.27.69-.21,1.42-.35,2.2-.53a5.19,5.19,0,0,0,.27-.66.56.56,0,0,0-.08-.41c-.23-.35-.65-.66-.7-1-.11-.74-.72-.51-1.14-.64s-.56.06-.7.39a3.45,3.45,0,0,1-.64,1,.67.67,0,0,1-.6.11c-.68-.53-1.37-.11-1.93-.14.13.39.25.73.36,1.08S201.21,313.61,201.31,314Zm16-6.32a.64.64,0,0,0,.44-.18,1.38,1.38,0,0,0-.46-2.17c-.88-.5-1.83-.26-2.74-.37a6,6,0,0,0-.74,0l-.08.19,2.31,1.93.14-.1-.14.47C216.47,307.53,216.88,307.63,217.29,307.68Zm-7.63-1.41a3.72,3.72,0,0,1-.53-.64l-1.59.69a.42.42,0,0,0-.21.18c-.34.75.5,1.72,1.38,1.71a21.41,21.41,0,0,1,2.9.2c.4.05.62,0,.71-.36.2-.75.39-1.51.54-2.28,0-.13-.12-.33-.25-.43-.64-.51-1.38-.18-2.08-.17-.54,0-.61.21-.35.63.08.12,0,.32,0,.49C210,306.3,209.76,306.36,209.66,306.27ZM383.83,438.15q-2,1.38-4,2.72c1-.62,1.95-1.25,2.9-1.93ZM49.95,232.54c.4-1.35,1-4.29,1.67-8.28.86-4,1.11-9.11,2.8-14.47,1.49-5.39,2.8-11.35,4.58-17.11l6-16.25c3.71-8.27,7-14.61,9.36-19.84,2.94-4.94,5.1-8.75,6.82-11.91l3.09-5.58,4.42-6.32c3.27-4.48,6.59-9.91,11.27-14.83,1.87-2,5.95-7,10.44-11.43l11.33-10.27c27-22.63,59.86-37.66,87.68-44.06-6.47,1.43-12.84,2.18-17.95,3.85l-15.58,4.48a237.7,237.7,0,0,0-54.4,33.19c-22.63,19.22-34.7,35.37-46.76,56.09-1.14,1.94-2.36,3.84-3.44,5.82l-2.91,6.15-5.85,12.41L57.8,187.24c-.76,2.2-1.66,4.37-2.32,6.62l-1.72,6.85c-5.39,18.17-7,37.81-7.15,58L48,272.39c.21,1.75.28-.32.2-4.1-.08-2.92-.17-6.45-.26-10.15s.43-7.56.59-11.14C49.09,239.87,49.32,233.82,49.95,232.54Zm461.89-83c-.3-2.55-.7-6.49-1.52-11-.31-1.86-1.71-8.51-2.3-10.25-2.75-11.94-10.83-22.14-18.14-28.49,1.4,1.86,2.73,3.57,3.75,5.09l2.61,4.88a56.79,56.79,0,0,1,9.69,18.65A77.77,77.77,0,0,1,508.88,152c-.43,11.57-3.19,23.23-7.72,35l-1,4.23c-.12.54.34,0,.87-1,1.77-3.23,4.4-9.57,4.94-10.32,1.41-1.38,4-11.31,5.17-18.35A41.55,41.55,0,0,0,511.84,149.52ZM392.33,323.06l-5.41,4.34c-8,6.76-3.62,4.91,7.07-2.66,11.33-8.12,22.68-17.88,33.45-27.54l8.54-8,.8-1q-13.93,12-28.56,22.91l-1.67,1.49,1.43-1.77C402.5,315.25,397.48,319.14,392.33,323.06Zm-8.5,115.09q4.83-3.39,9.48-7ZM145.06,259.85c-.81-.74-5.41-.51-8.55-.64a15.6,15.6,0,0,0-5.24.39,32.68,32.68,0,0,1-4.79,1,34.18,34.18,0,0,1-4.49.11c-5.13-.53-10.28-.11-14.46-.14,1,.39,1.89.73,2.67,1.08s1.55.76,2.34,1.15c2.78,0,6.29-.15,9.24,0,4.28.15,7.13-.13,10.61-.27,5.21-.21,10.63-.35,16.5-.53a17.61,17.61,0,0,0,2-.66c.26-.12,0-.3-.59-.41C148.6,260.52,145.45,260.21,145.06,259.85Zm87.28-3.38a27.92,27.92,0,0,0,3.31-.18c5-.63,2.77-1.7-3.44-2.17-6.61-.5-13.7-.26-20.54-.37-1.81,0-3.68,0-5.52,0l-.61.19,17.33,1.93,1.06-.1-1.06.47C226.23,256.31,229.26,256.42,232.34,256.47Zm-57.23-1.41c-1.7-.19-2.85-.45-3.94-.64l-11.95.69a10.13,10.13,0,0,0-1.56.18C155.1,256,161.41,257,168,257c7.26,0,14.57.08,21.78.2,3,.05,4.65,0,5.3-.36a37.55,37.55,0,0,0,4.08-2.28c.19-.13-.92-.33-1.88-.43-4.8-.51-10.37-.18-15.6-.17-4,0-4.54.21-2.62.63.58.12.1.32.11.49C177.78,255.08,175.9,255.15,175.12,255.06ZM47.84,430.79a79,79,0,0,1-23.29-14.1,63.93,63.93,0,0,1-16.48-22.9c-2.92-7.38-3.6-11.51-4.37-13.1C2.32,377,1,373.38.17,370.46c-.15-.49-.3,2.4,0,5,.27,6.35,2.26,13.29,5,20a72.46,72.46,0,0,0,12,18.27c3.83,3.92,6.15,5.94,7.07,6.45s.23-.11-1.59-1.92c-1-1.17,0-.43.11-.57a94.15,94.15,0,0,0,8.4,6.5c3.56,2.69,6,4.16,8.42,5.67a108.4,108.4,0,0,0,27.93,8.7,29,29,0,0,0,3.66.55C77.26,439.15,62.73,436.71,47.84,430.79ZM417.32,197.87c-1.48,0-3.35.15-4.93,0a33.61,33.61,0,0,0-5.66.27c-2.78.21-5.67.35-8.8.53a7,7,0,0,0-1.06.66c-.14.12,0,.3.32.41.91.35,2.58.66,2.79,1,.43.74,2.89.51,4.56.64a4.64,4.64,0,0,0,2.79-.39,10.81,10.81,0,0,1,2.55-1,9.77,9.77,0,0,1,2.39-.11c2.74.53,5.49.11,7.71.14-.52-.39-1-.73-1.42-1.08S417.75,198.26,417.32,197.87Zm9-20.23-.52.85c5.4.14,3.22,1,3,1.8,2.07-.08,4-.23,5.81-.21a47.72,47.72,0,0,1,8.48.46c.56.12,2,0,2.88,0s1.66.25,2.48.37l-1.45.47c1.73.34,2.62.78,1,1.36-.37.13,0,.37,0,.56-.21.5-.93,1-4.32,1.15-1.77.06-3.83,1.18-3.21,1.72.9.78-1.71,1.51-5.16,1.46-1.91,0-3.84,0-5.75,0a3,3,0,0,0-1.12.32,22.48,22.48,0,0,1-6.7.79,5.45,5.45,0,0,1-1.12-.14c-1.38-.5-1.36-.5-3.37-.07,1.07.49,2.15.94,3,1.41.34.18.26.4.38.6-1.3,0-2.61,0-3.91,0-.45,0-.88-.17-1.3-.16q-8.08.11-16.15.26c-.23,0-.44,0-.66.06,0,0,0,.11.07.11,4.3.06,8.59.12,12.89.15,1.32,0,2.64-.06,4-.07,2.62,0,3.37.17,3,1,1.46-.15,2.58-.27,3.74-.37.78-.07,1.59-.14,2.41-.16a99.45,99.45,0,0,0,10.45-.78c1.12-.13,2.63-.09,4-.13,2.07-.06,4.17-.1,6.21-.19,3.25-.15,4.52.12,3.89.86a13.41,13.41,0,0,0-1.08,1.71c-1.57,0-2.59.33-2.19.87l-11.29.22.24-.1a14.52,14.52,0,0,0-1.68-.19c-3.81,0-7.62,0-11.43,0-.5,0-1,0-1.51,0-2-.1-2.52-.08-2.3.28.4.66-1.79.73-3.31.89-4,.45-8.36.66-12.67.92-3.44.21-7.11.18-10.4.52-.64.07-1.47,0-2.21,0-3,0-5.94-.38-9.08-.16a5,5,0,0,1-1.62-.27c-.44-.24-.54-.51-.81-.8l-2.16-.12.69-.25c-1.76.07-3.25.18-4.72.17s-2.89-.17-4.49-.27l-.27.39-3.53-.06.78-.13c0-.34-.44-.64,0-.86a10.62,10.62,0,0,1,2.62-.31c1,0,1.45,0,1.75-.31a11.36,11.36,0,0,1,2.41-.54c2.08-.44,1.4-1,1.53-1.55,0-.19-.07-.38-.12-.65l-1.73-.25,2.86-.36-.17.34a10.38,10.38,0,0,0,1.28,0,38.5,38.5,0,0,0,3.92-1.2c1.39-.58-1.63-1.3-4-1.36-3-.08-6,0-9-.05-1.23,0-2.46,0-3.77-.11l6-.24c0-.05,0-.1,0-.15-.67,0-1.33-.08-2-.07a9,9,0,0,1-3.1-.34,11.17,11.17,0,0,0-3.67-.26c-2,.06-4.84.35-6.29-.27-.54-.23-.09-.59-.09-.88h-5.71l2.74-2.19-1.14-.15c3.4-.21,1.71-1.16,4.49-1.5l-2.7-.34c.89-.3,1.94-.52,1.42-1s1.28-.86,1.83-1.31c.22-.18-.23-.4-.11-.6a1.15,1.15,0,0,1,.94-.67c1.44-.11,2.11-.85,4.38-.32a5.28,5.28,0,0,0,1.07,0,72.91,72.91,0,0,1,10.9.11c2.33.17,5,.16,7.5.14,3,0,5.88-.23,8.83-.26,3.41,0,6.84,0,10.27,0a16.51,16.51,0,0,0,2-.07,33.58,33.58,0,0,1,10.24.3,46.27,46.27,0,0,0,4.75.37l-.16-.2a4.07,4.07,0,0,1,1.68-.72,18,18,0,0,1,5.25.2C422.35,177.45,424.39,177.49,426.3,177.64Zm-58.1,3.65a3.78,3.78,0,0,0-1.19-.39c-1.32,0-2.69,0-4,0-.81,0-1.6.08-2.4.08-.48,0-1-.06-1.44-.1l-.18.21,8.82.33ZM395,190.82a17.72,17.72,0,0,0-6.22.12l2.56,0,.06,0-1.91.16a24.28,24.28,0,0,0,2.47.15C393.05,191.15,394,191,395,190.82ZM218.91,326.5l-.69,2.19.29.15c-.85.21-.43,1.16-1.12,1.5l.67.34c-.22.3-.48.52-.36,1s-.32.86-.46,1.31c-.06.18.06.4,0,.6s-.09.63-.24.67c-.36.11-.53.85-1.09.32a.35.35,0,0,0-.27,0,4.66,4.66,0,0,1-2.73-.11,5.85,5.85,0,0,0-1.88-.14c-.74,0-1.47.23-2.21.26s-1.71,0-2.57,0a1.08,1.08,0,0,0-.49.07,2.33,2.33,0,0,1-2.56-.3,3.34,3.34,0,0,0-1.19-.37l0,.2c-.14.25-.21.64-.42.72a1.24,1.24,0,0,1-1.31-.2,4.28,4.28,0,0,0-1.3-.43l.13-.85c-1.35-.14-.8-1-.75-1.8a7.71,7.71,0,0,1-1.45.21,3.27,3.27,0,0,1-2.12-.46c-.14-.12-.5,0-.72,0a2.74,2.74,0,0,1-.62-.37l.36-.47a.9.9,0,0,1-.25-1.36c.09-.13,0-.37,0-.56a1.14,1.14,0,0,1,1.08-1.15c.44-.06,1-1.18.8-1.72a1.19,1.19,0,0,1,1.29-1.46,11.57,11.57,0,0,0,1.44,0c.1,0,.21-.19.28-.32a2,2,0,0,1,1.68-.79.48.48,0,0,1,.28.14c.34.5.34.5.84.07-.27-.49-.54-.94-.76-1.41a2.06,2.06,0,0,1-.09-.6c.33,0,.65,0,1,0,.11,0,.22.17.32.16,1.35-.07,2.69-.17,4-.26a.57.57,0,0,0,.16-.06.48.48,0,0,0,0-.11c-1.07-.06-2.15-.12-3.22-.15-.33,0-.66.06-1,.07-.65,0-.84-.17-.76-1-.36.15-.65.27-.93.37a2.36,2.36,0,0,1-.6.16,7.08,7.08,0,0,0-2.61.78,3.33,3.33,0,0,1-1,.13c-.52.06-1,.1-1.55.19-.81.15-1.13-.12-1-.86.11-.54.17-1.09.27-1.71.39,0,.65-.33.55-.87l2.82-.22-.06.1c.14.07.28.19.42.19,1,0,1.9,0,2.86,0a2,2,0,0,1,.38,0c.49.1.63.08.58-.28-.1-.66.45-.73.83-.89a18.12,18.12,0,0,1,3.17-.92,17.21,17.21,0,0,0,2.6-.52,1.65,1.65,0,0,1,.55,0c.76,0,1.48.38,2.27.16.1,0,.35.14.4.27a4.14,4.14,0,0,1,.2.8l.54.12-.17.25a6.4,6.4,0,0,1,1.18-.17,6,6,0,0,1,1.12.27l.07-.39.88.06-.2.13c0,.34.11.64,0,.86a.94.94,0,0,1-.66.31c-.25,0-.36,0-.44.31s-.39.36-.6.54c-.52.44-.35,1-.38,1.55,0,.19,0,.38,0,.65l.43.25-.72.36,0-.34c-.11,0-.28,0-.32,0a8.31,8.31,0,0,0-1,1.2c-.35.58.41,1.3,1,1.36.74.08,1.5,0,2.24.06a2.93,2.93,0,0,1,.94.11l-1.5.24c0,.05,0,.1,0,.15a2.92,2.92,0,0,0,.5.07.79.79,0,0,1,.78.34c.19.28.5.31.92.26s1.21-.35,1.57.27c.14.23,0,.59,0,.88Zm-10.46-5.58-.64,0v0l.48-.16c-.32-.09-.51-.2-.62-.15a5.45,5.45,0,0,0-.76.44C207.18,321.38,207.82,321.34,208.45,320.93Zm7.46,9.81-2.2-.33-.11.17c.1.14.18.38.3.39a5.25,5.25,0,0,0,1,0c.2,0,.4-.08.6-.08a1.26,1.26,0,0,1,.36.1Zm230.76,4.86c2.29-6.6,5.95-15.78,7.23-21,3.9-16.25,4.5-20.82,3-16.32-.79,2.24-2.16,6.72-4,13.14l-1.47,5.16-2.22,5.67-5.11,13.24a214,214,0,0,1-36.75,56.32,206.91,206.91,0,0,1-53.57,42.36l-16.4,7.88c-5.64,2.35-11.49,4.27-17.19,6.44-.84.33-1.66.72-2.5,1,17.8-5.65,35.23-12.95,51.09-23.12,16-10.6,31.31-22.71,43.95-37.41a44.47,44.47,0,0,0,4.47-5.54,43.79,43.79,0,0,1-4.19,5.77A218,218,0,0,0,446.67,335.6ZM340,406.92c-5.47,1.1-8.46,1.26-9.65,1.62-2.78,1-5.47,1.48-7.74,2.15-.38.1,1.75.43,3.61.62,9.31.93,20.31-1.9,29.28-6.67,6.8-3.92,7.35-4.86,4.05-3.11-1,.48-.34-.17-.44-.3,2.27-1.37,5-3.66,6.25-4.54,2.55-2,4.36-3.31,5.87-4.79a58.54,58.54,0,0,0,11.29-19.83,28.76,28.76,0,0,0,.83-2.86c.43-5-2.79,6.74-10.28,16.41A55.55,55.55,0,0,1,340,406.92ZM499.16,207.08c-.18.54-.87,1.87-1.49,3.07a234.35,234.35,0,0,1-12.92,22c.3,3.46.43,6.92.54,10.48l-.73-9.72-.06-.37h0l-.43.51c.49,6.65.28,11.59.38,13.82-.06,3.31-.43.79-1.3-10.36a13.91,13.91,0,0,0-.23-2.08l-.08.09c-.09.51-.13,2.25-.27,1.62-.07-.27-.13-.63-.2-1.06l-3.34,4-3.08,4c0,.48,0,1,.05,1.41,0,0,0,0,0,0,0,1,.06,1.87.07,2.7.29,8.66.15,10.8-.43,6.65-.4-2.86-.77-5.08-1.14-7.17-.77,1-1.83,2.38-3.24,4.14-7,8.72-14.76,17.79-22.2,24.8-1.5,1.39-3.3,2.93-3.11,2.55,1.16-2.27,2.72-4.91,4.35-7.8.69-1.27,3.06-3.73,7.31-8.51,5.55-6.14,11-12.53,16.15-19.17-.18-1-.37-2-.57-3.18-.23-2.62-.49-5.13-.77-7.49-3.14,4.19-6.4,8.37-9.77,12.68a55,55,0,0,1-4.24,4.68,15.62,15.62,0,0,1-2.64,1.88c-1.52,1.77-3.43,3.77-5.63,6.2l1.58-2.16c-4.45,5.17-8.36,9.44-12.32,13.52s-8,7.82-12.55,12.07l-.51,1c-2.87,2.6-5.67,5.34-10.12,9.2l2.18-2.11c-.36-.13-1.7.65-.59-.62.89-1,4.55-4.61,7.23-7.12,2.85-2.72,4-3.92,4.65-4.91.45-.73,4.07-4.44,6.2-6.93,5.31-6,3-4.55,3-5.28,0-.26-.45-.08-.8-.11l-4.82,4.56c2.9-3.15,4.92-5.31,7.36-8.14l-.19.7,3.36-3.6c3.27-4.17,6.85-8.71,9-12.05,3-4.41-4.94,4-11,10.46-7.66,8.25-15.84,16.39-24.23,24.15-3.41,3.23-7,6.31-10.75,9.55,5.68-5.11,11.29-10.31,16.73-15.66l-.12-.1-5.58,5.17a93.74,93.74,0,0,1-9,7.68c-2.29,1.72-5.89,4.74-10.76,8.94-5.9,5-14.11,11.91-18.88,14.78-1.8,1.06-.63-.27-.81-.5-3.24,2.47-6.47,4.89-10.3,7.69,2.17,2.15,4,4.13,5.16,5.48s2.86,3.63,4.64,8c2.25,5.15,3.75,13.27,3.14,14.76-.27.73-.14,6.21-.81,9.1-.16.94-.36,1.43-.46,1-.21-1-.38-2.64-.49-3.41a50.66,50.66,0,0,0-7.46-26.33,52.46,52.46,0,0,0-5.49-7.33l-2.21,1.6A47.58,47.58,0,0,1,375,340.63c2.72,10,1.56,21.34-2,30.6a43.81,43.81,0,0,1-3,5.93c-4.7,7.91-11.54,13.81-19.77,18.38a22.61,22.61,0,0,1-4.53,1.76,9.32,9.32,0,0,1-2.53.07,52,52,0,0,1-6.15,1.53,18.34,18.34,0,0,0,1.9-.7,43.72,43.72,0,0,1-13.67,1.4,43.07,43.07,0,0,1-12.79-2.73l-.88.09a43.27,43.27,0,0,1-9.26-4.59l2,1.08c0-.37-.77-1.21.41-.75.93.35,4.35,2.05,6.94,2.86,2.72,1,4,1.22,4.84,1.18.62,0,4.38.57,6.76.67,5.84-.14,3.9-.82,4.28-1.34.12-.18-.18-.39-.32-.67-.34-.07-1.88-.12-4.57-.55a42,42,0,0,0,7.55-.15l-.42.36a19.85,19.85,0,0,0,3.39-.27,35.19,35.19,0,0,0,9.63-3.64c3.07-1.84-4.26.63-10.06,1.12a41.35,41.35,0,0,1-21.8-3.43,34,34,0,0,1-7.93-4.94,40.42,40.42,0,0,0,13.23,6.59l0-.15c-1.54-.54-3.08-1.12-4.56-1.77a24.1,24.1,0,0,1-6.43-4c-1.31-1.31-3.74-3-6.5-6.06-3.48-3.48-7.13-9.43-7.63-13-.23-1.3.48-.4.76-.5a37.36,37.36,0,0,1-2.36-13.1,39.72,39.72,0,0,0,2.75,6l-.23-2.51c.6,3.71,1.15,4.53,1.67,5.18a17,17,0,0,1,2.06,3.84,38.59,38.59,0,0,1-1.33-5.5c.78,1.73,1.49,3.74,1.69,2.58.08-.85,1.67,2.16,2.48,3,.36.31.17-.56.45-.42a2.58,2.58,0,0,1,1.39,1.32c1.33,2.36,2.53,3,4.81,6.55a12.71,12.71,0,0,0,1.33,1.47,34.72,34.72,0,0,0,17.88,8.61,27.84,27.84,0,0,0,13.78-1.58,30.94,30.94,0,0,0,19.65-27.13,16.76,16.76,0,0,0-.11-3.64,43.75,43.75,0,0,0-2.5-9.51,50.4,50.4,0,0,0-4.28-7.91,28.16,28.16,0,0,0-6.44-6.18l.15.32a13,13,0,0,1-3-1,57.58,57.58,0,0,0-9-3.2c-2.2-.75-6.09-.86-9.63-.46l.86-1c-5.15.67-6.63,1.28-6.94,1s.68-1.05.78-1.5A34.23,34.23,0,0,0,307.46,326c-4.69,3.55-8.29,8.78-10.66,13.33A33.41,33.41,0,0,0,295,345a48.31,48.31,0,0,0-1,5,16.32,16.32,0,0,1-.16-3.07c-.84,3.53-1.14,5.55-1.63,2-.1-.82-.38.07-.56-.11s-.46-.8-.43-2.24a21.8,21.8,0,0,1,1.46-7.49c1.21-3.82,3-8.46,1.74-7.51-1.73,1.61.39-4.82,7-10.48a42.37,42.37,0,0,1,12.29-7.18c1-.35,1.92-1,2.55-1.19a29.21,29.21,0,0,1,7.15-2,36.19,36.19,0,0,1,9.6,0c1,.18,2.32.42,2.81.57,3.3,1.35,3.22,1.16,8.16,2.59a53,53,0,0,0-7.06-3.71c-.83-.41-.6-.54-.86-.8A42.61,42.61,0,0,1,346,312.5c1.06.55,2.08,1.11,3,1.7A43.55,43.55,0,0,1,371.19,349l.15,1.75c0-.07.11-.1.1-.18a43.6,43.6,0,0,0-13.83-30.79A42.91,42.91,0,0,0,349,313.6c-6.24-3.25-8.33-3.56-7.15-4.17a46.13,46.13,0,0,0-10.07-1.72,55.41,55.41,0,0,0-6.56.08,41.21,41.21,0,0,0-25.44,10.86,50.25,50.25,0,0,0-7.06,7.8,42.34,42.34,0,0,0-6.79,14.9,64,64,0,0,0-1.37,8.89c-.23,1.7-.51,2.14-.83,1.3a30.48,30.48,0,0,0-1.55-3c.32-4.37.78-7.25,0-6.27a47.05,47.05,0,0,1,16.6-27l-.49.49,4-2.67a46.76,46.76,0,0,1,31.11-7.25c1.42.24,2.92.37,4.24.7,5.44,1.37,6.82,2.25,6.4,1.62-.87-1,5.21,1,9,3.43A44.65,44.65,0,0,1,363.61,320l1.83-2-.68-.7-.23.16.22-.17c-1.3-1.35-2.74-2.72-4.41-4.22a50.59,50.59,0,0,0-13.08-7.92c-1.08-.82-2.07-1.59-3.29-2.43a40.42,40.42,0,0,0-4.12-2.26c7,1.61,15.66,5,22.08,11.28.76.67,3,2.8,4.5,4.26,7.66-5.93,3.2-3.79,10.85-9.9l-8.35,5.87c2.5-2.25,5.54-4.81,3.69-4-1.45.6,3.35-3.55,4.69-5.23.55-.66-.93.22-.69-.22a8.13,8.13,0,0,1,2.37-2.71c4.2-3.39,5.67-5.59,12.57-10.55.59-.44,2.15-1.77,3.05-2.57,10.38-9.17,20.13-18,29.94-27.53,6.27-6,12.95-13.34,18.92-20.37a287.67,287.67,0,0,0,19.45-25.87q2.22-3.35,4.34-6.76a216.26,216.26,0,0,0-53.3-98l-.2.08c-.26-.32-.53-.63-.81-.94l.14-.06-.77-.8-.09,0,0-.05-.34-.37.06-.05-1.18-1.21h-.08a19.44,19.44,0,0,0-2.55-2.15,16.63,16.63,0,0,0-1.42-1.43L407,101q-1.82-1.76-3.68-3.47l-2.47,0c-2.06-.07-7.28.6-10.61.84l-9.49.61,5.52-1.06c-6.66.37-10.11.29-4-.95,1.4-.28-.23-.35.05-.57.72-.55,3.59-1.51,16.17-2.72l.53,0q-3.08-2.7-6.26-5.28l-1.17.12c-12.4,1.37-17.29,1.69-15,.68a38.79,38.79,0,0,0,4-2.14c6-.7,9.89-1.36,8.31-1.74H389c-4.39-3.41-8.73-6.89-13.48-9.92-42-28.17-94.31-39.43-144.31-33.65-6.57,1.11-13.51,1.85-19.69,3.24l-15.64,4c-4.22.92-7.16,2.45-9.42,3.16-4.44,1.66-5.47,2.14-4.06,1.81,2.65-.49-3,1.35-11.26,5.07l-13.73,6.78c-4.9,2.39-9.45,5.66-13.78,8.19a217.64,217.64,0,0,0-59.19,55.8,213.11,213.11,0,0,0-34.9,76.36c-4.9,22-7.23,45.43-4.92,68.4.7,7.2,1.78,14.32,3.16,21.33,2.16-3.17,4.6-6.59,7.59-10.67l-4.49,10,2.7-3.53c-3.81,5.71-4.46,7.12-5,8.46.1.45.21.88.31,1.33l2.18-3c-.71,1.28-1.48,2.64-2,3.68a222.07,222.07,0,0,0,12,37.5c3.85,7.37,7.87,17.52,13.33,25.58C84.32,382.41,96.92,397.45,111,411l2.17,2c3.55-.19,7.1-.41,10.5-.66a208,208,0,0,1-31.59-33.92c-12.23-16.32-21.3-34.33-25.88-47.48l-.1,0,.08,0-.38-1.11a.24.24,0,0,1,0-.12c-.24-.7-.47-1.4-.67-2.07-4.82-13.12-5.17-19.48-2.87-11.18l3.72,9.69c.26.69.54,1.38.81,2.07.38-.37,1.29-.7,3.54-.8,1.55-.06,3.36-1.18,2.81-1.72-.79-.78,1.49-1.51,4.51-1.46,1.67,0,3.36,0,5,0a2.38,2.38,0,0,0,1-.32,17.36,17.36,0,0,1,5.87-.79,4.2,4.2,0,0,1,1,.14c1.21.5,1.19.5,2.95.07-.93-.49-1.88-.94-2.66-1.41-.3-.18-.23-.4-.33-.6,1.14,0,2.28,0,3.42,0,.39,0,.77.17,1.14.16q7.07-.11,14.13-.26c.2,0,.39,0,.57-.06,0,0,0-.11-.06-.11-3.76-.06-7.52-.12-11.28-.15-1.15,0-2.31.06-3.47.07-2.29,0-2.95-.17-2.65-1-1.27.15-2.26.27-3.27.37-.68.07-1.39.14-2.11.16a76.35,76.35,0,0,0-9.15.78c-1,.13-2.3.09-3.46.13-1.81.06-3.65.1-5.44.19-2.85.15-4-.12-3.41-.86a13.9,13.9,0,0,0,.95-1.71c1.37,0,2.27-.33,1.92-.87l9.88-.22-.21.1a11.18,11.18,0,0,0,1.47.19c3.33,0,6.67,0,10,0,.44,0,.9,0,1.32,0,1.72.1,2.21.08,2-.28-.35-.66,1.57-.73,2.9-.89,3.52-.45,7.31-.66,11.09-.92,3-.21,6.22-.18,9.1-.52.56-.07,1.28,0,1.93,0,2.66,0,5.19.38,7.95.16a3.88,3.88,0,0,1,1.42.27c.39.24.47.51.71.8l1.89.12-.6.25c1.54-.07,2.85-.19,4.13-.17s2.53.17,3.93.27l.24-.39,3.09.06-.68.13c0,.34.38.64,0,.86a8.19,8.19,0,0,1-2.3.31c-.89,0-1.27,0-1.53.31a8.89,8.89,0,0,1-2.11.54c-1.82.44-1.22,1-1.34,1.55a1.91,1.91,0,0,0,.11.65l1.51.25-2.5.36.15-.34a8,8,0,0,0-1.12,0,30.67,30.67,0,0,0-3.43,1.2c-1.21.58,1.43,1.3,3.48,1.36,2.59.08,5.23,0,7.86.06,1.08,0,2.16,0,3.3.11l-5.26.24c0,.05,0,.1,0,.15.58,0,1.17.08,1.75.07a7,7,0,0,1,2.71.34,8.6,8.6,0,0,0,3.21.26c1.78-.06,4.24-.35,5.51.27.48.23.08.59.08.88h5l-2.4,2.19,1,.15c-3,.21-1.5,1.16-3.93,1.5l2.36.34c-.78.3-1.7.52-1.25,1s-1.12.86-1.6,1.31c-.2.18.2.4.09.6a1,1,0,0,1-.82.67c-1.26.11-1.85.85-3.83.32a4,4,0,0,0-.93,0,55.86,55.86,0,0,1-9.54-.11c-2-.17-4.38-.16-6.56-.14-2.59,0-5.14.23-7.73.26-3,0-6,0-9,0a12.69,12.69,0,0,0-1.72.07,25.77,25.77,0,0,1-9-.3,35.56,35.56,0,0,0-4.16-.37l.14.2c-.47.25-.72.64-1.47.72a13.78,13.78,0,0,1-4.59-.2,44.93,44.93,0,0,0-4.54-.43l.46-.85c-4.73-.14-2.82-1-2.62-1.8-1.81.08-3.46.23-5.08.21a36.61,36.61,0,0,1-7.42-.46c-.49-.12-1.73,0-2.52,0l-.29,0a203.4,203.4,0,0,0,39.67,62c2.46,2.65,4.58,5.78,7.74,8.6L126,411.92l.24.23c3.9-.3,7.53-.62,10.58-.92,4.23-.37,12-1.64,18.1-2.77l-.65-.08c2-.62,3-1.25,6.19-2,6.35-1.54,13.11-3.2,19.77-4.69,4.74-1,12.34-3.21,19.49-5.38l-1.68,1.44c20.1-6.5,12.27-3.11,11.71-2,7.65-2.74,14.55-5.49,21.32-8.14,10.6-4.11,21.6-9.12,30.84-12.78,1.91-.79,6.37-3.05,9.59-4.55a25.77,25.77,0,0,1-.91-6.18c.11-1.4.77-.16,2.27,4.26l.43,1.1,7.82-3.56-4.91,3c6.24-2.77,9.59-4,4.16-.57-1.24.78.34.25.15.56-.36.53-1.51,1.57-5.89,4l.49,1.27q.91,2.13,2,4.19c9.52-4.78,13.24-6.42,11.53-4.77a41.88,41.88,0,0,0-3.11,3.48c-3.2,1.66-5.74,3-7,3.89a59.66,59.66,0,0,0,5.73,8.34,16.25,16.25,0,0,1-1.63-1.24,16,16,0,0,0,1.36,1.48A59,59,0,0,0,310.37,409a12,12,0,0,1-1.19-.2,63.05,63.05,0,0,1-9.92-4.25,60,60,0,0,1-22.74-22.09c-13.33,6.58-26.59,12.49-40,17.91l.86-.45L231,402.21c-14.33,5.49-28.91,10.42-43.71,14.57l-5.86,1.62c-7.7,1.88-9.89,2.4-9,2.55,1.74.3-6.87,2.39-12.88,3.82-3.56.81-7.21,1.58-10.91,2.3l3.78,2.25c6-1.05,12.89-2.62,18.37-3.9l5.22-.12,5.92-.37c-7.7,2-17,4.49-26.65,6.08,2.2,1.29,4.67,2.73,7.44,4.34,30.79,16.05,67.75,24.43,99.7,23.37,6.38-.23,13.79-.39,12.54-.2-7.56,1-17,2.91-27.27,2.67-2.21,0-6.07,0-11.9-.31-5.74-1-13.59-1.65-23.51-3.92a196.89,196.89,0,0,1-62.07-25.21c-2.33.34-7.41,1.24-8.94,1.59l-2,.4c2.34,1.48,4.74,2.88,7.12,4.35,4.38,2.53,8.56,5.51,13.33,7.51,4.83,2.23,16.21,8.22,19.19,9,5.36,2.21,6.44,2.9,9.7,4.4a86.25,86.25,0,0,0,12.4,3.78c4.58,1.11,9.49,2.69,15,3.72l-.29,0a203.06,203.06,0,0,0,53.13,3.6c19.2-.68,37.89-4.32,58-10.85l3.26-1.61,9.39-3.42c3.19-1.21,6.28-2.93,9.67-4.48l10.76-5.2,11.85-7.18L363,442.78c.69,0,5.27-2.45.48.71-1.81,1.42-6.76,3.9-12.65,6.75l-9.24,4.53-9.46,3.52c-12.57,5-18.37,5.72-22,7.13a97.84,97.84,0,0,1-12.42,3.15c-6.14,1-13.32,2.27-18.89,3.07-27.6,1.83-18.55,2-20.27,2.58-.61.22.9.34,1.66.57,1.73-.23,9.43,0,23.18-1.29-7.4,1.18-13.8,1-19.88,1.56s-12,.07-18.53-.14l2.25-.23c-5.92-.24-14.85-.76-17.18-1.36l-14-1.84c-4.72-.5-9.23-2-13.71-2.91-4.43-1.15-8.85-1.83-12.78-3.23l-11-3.68c-8.91-3-3.86-.76,7.2,3.57S214.58,474,230.39,476c4.95,1,10,.84,15.06,1.22,5,.12,10.11.85,15.18.45C270.77,477.11,281,477,291,475c10.18-1.12,20-4,29.91-6.55,4.94-1.3,9.64-3.38,14.46-5l7.19-2.63c2.39-.9,4.62-2.15,6.94-3.21l11.34-5.46c3.82-1.77,7.27-4.25,11-6.36,2.63-1.65,5.37-3.19,8-4.87a222.39,222.39,0,0,1-58.7,27.87l.1.13c4.4-1.12,8.58-3,12.88-4.42,4.22-1.67,8.66-2.82,12.66-4.95a288.1,288.1,0,0,0,37.06-20.3c4.15-3,9.75-6.86,16.32-12,6.07-5.76,14.06-11.89,21.48-20.77l7.29-8.07c2.34-2.93,4.57-6.09,6.93-9.21s4.79-6.26,7-9.56l6.11-10.08c4.3-6.5,7.37-13.38,10.39-19.5,1.44-3.09,3.09-5.9,4.15-8.71l3-7.69c2.79-6.94,1-.94,1.24-.83,2-5.41,4.1-10.74,5.34-16.5s3.21-11.46,4.28-17.68l3-19.8,1.15-22.83c.05,6.69.1,13,.15,19.15s-.91,12.26-1.36,18.68c.11-.75,1.27-7.36,2.21-14L479.4,302.2c-1.13,4.92-1.66,7.59-2.12,10-1,4.45-1,8.25-6.52,23.5,2.11-5.58,4.16-10.4,5.39-15.22l4.6-17.28c-2.74,12.11-6.35,26.44-4,19.6,2.31-5.23-5,17.3-7.7,24.7-1.2,2.93,1.78-2.79,1.21-1.15a104.2,104.2,0,0,1-5.19,12.34c-4.09,9.41-8.39,15.62-12.81,23.46-2.12,4-5.23,7.77-8.62,12.42a132,132,0,0,1-13.08,15.75c-2,2-7.06,7.94-10.38,11.1-37.51,37.08-85.72,59.53-137.74,65.25-33,3.8-71.63-.71-105-13.13-10-3.23-19.35-8.13-28.81-12.63-4.68-2.35-9-5.3-13.54-7.93l-6.71-4.07c-2.2-1.4-4.23-3.07-6.35-4.59l-9.21-6.88c-5.63.21-11.22.22-12.51-.38-.87-.31-7.9-.81-11.67-1.47-1.22-.18-1.87-.39-1.29-.48,1.25-.19,3.46-.32,4.48-.41,6,.23,11.75.19,17.33-.05L106.22,432a173.37,173.37,0,0,1-40.29-3.29c-2.6-.52-5.94-1.52-8.91-2.42-12.1-4-23.22-10.22-32.56-20.24-1.15-1.34-3.77-4.7-4.1-5.7A17.79,17.79,0,0,1,19.12,397a58.8,58.8,0,0,1-3.89-8.32,20.24,20.24,0,0,0,1.33,2.59,59.81,59.81,0,0,1-5.08-19.18,74.68,74.68,0,0,1,1.08-18.67l-.22-1.19a103,103,0,0,1,3.5-14.16l-.8,3.12c.38-.1,1.13-1.55.83.21-.33,1.36-1.42,6.71-2.1,10.53-.56,4.14-.92,5.89-.64,7.13.17.9-.16,6.38.3,9.82,1,8.41,1.6,5.5,2.09,6,.21.15.35-.32.58-.57a44.25,44.25,0,0,1-.26-6.79,56.63,56.63,0,0,0,1.56,11l-.49-.56,1.18,4.87c2,5,4.75,10.18,7.49,13.1,3.49,4-3-5.51-5.08-14-2.91-10.62-2.62-22.37.06-33.61a59.67,59.67,0,0,1,1.84-6.93,61.94,61.94,0,0,1,2.44-7,98.72,98.72,0,0,0-5.45,22.45h.15c.42-2.5.73-5,1.38-7.48A62.88,62.88,0,0,1,24.38,338c1.28-2.63,2.83-7.11,5.51-13.1,1-2.36,2.3-5,3.62-7.61l-3.63-14.16c-.61-3.91-1.26-7.82-1.86-11.74l-3,5.1c-3.68,5.92-7,12-10.47,18.87l.66-2.39-1,2.24a133.4,133.4,0,0,0-14,38.92l0-1.54A109.21,109.21,0,0,1,3,339.26a161.07,161.07,0,0,1,19.85-43.7c1.83-2.77,3.44-5,4.77-6.81a160.79,160.79,0,0,1-2-21.89c-.88-9.37-.1-20.28.23-27.9a231.52,231.52,0,0,1,17.53-74.23c10.21-23.91,24.69-44.19,36.79-58.46C85.62,100.62,92.74,92,102,84.21l6.82-6.14c2.31-2,4.92-3.76,7.37-5.65,5-3.57,9.69-7.59,14.66-10.43l-2.06,1c6.48-4.11,9.58-6.9,20.19-12.79,21.18-11.66,46-19.59,70.69-23.35,17.44-3.36,46.67-4.26,73.53.17l-7.45-.28c38,5.58,48.1,12.18,49.39,12.51,1.23.81-6.88-1.71-8.45-1.88a222.1,222.1,0,0,1,71.87,37.9c3.57,2.73,7,5.62,10.45,8.62a200.85,200.85,0,0,1,23.63.62l-.94,0,6.47,1c14.63,2,29.34,6.26,41.88,14.71l4.74,3.63c5.75,5.26,6.88,7.24,6.66,6.29s1,.41,2.9,2.49a58.64,58.64,0,0,1,5.22,8.1A57.58,57.58,0,0,1,506.11,145a89.17,89.17,0,0,1-2.68,25.63c-3.24,13.37-9.38,26.56-15.51,38-1.12,2.24-2.92,5-4.4,7.46-.25.4-.51.79-.76,1.19.41,2.92.77,5.76,1.2,8.55.15.83.24,1.65.36,2.48.64-.94,1.28-1.88,1.9-2.83C494.06,213.69,501.05,201.68,499.16,207.08ZM317.51,475.94l7.79-1.77,8.19-2.82,13.15-4.84,12.78-6.15,6.41-3.11c2.08-1.14,4.08-2.44,6.11-3.65l12.13-7.41c9.07-6.7,18.3-13,26.36-20.89l7.49-6.77c2.47-2.29,4.64-4.91,7-7.35l1.58-2.05c-27.42,30.75-63.81,53-103,65.11ZM147.58,430.1q-1.7-1.09-3.38-2.2-5.28,1-10.7,1.73l.32.24c.87.71,1.78,1.38,2.69,2C140,431.35,143.48,430.76,147.58,430.1Zm.15-2.85-.73.14.8.46C147.86,427.7,150.45,429,147.73,427.25Zm-5.14-3.81.69.42c1.08-.17,2.16-.33,3.23-.51,5.21-.86,10.41-1.94,15.6-3.07,10.26-2.23,13.17-3,12.06-1.82,5.66-1.5,10-2.89,14.43-4.22l9.23-2.92a388.64,388.64,0,0,0,39.25-14.79l14.59-6.23c7.6-3.36,15.24-6.91,22.56-10.57l.62-.31c-.67-1.36-1.28-2.75-1.81-4.15-.17-.46-.31-.89-.46-1.34-1.86,1-4.14,2.13-7,3.51-6.32,3-13.37,7.39-10.9,6.88,3.59-.79-5.55,4.25-18.36,9.34-7.09,2.84-14.29,5.58-21.45,8.11a42.31,42.31,0,0,0-4.1,1.79,203.36,203.36,0,0,1-25.3,8.69c-1.56.41-3.56.92-4.35,1.06-5.44,1-5.36.87-13,3.23l12.13-1.58c1.36-.19,1.12.1,1.61.18-5,1.36-10.12,2.65-15.18,3.78l-5.11,1Q152.14,421.89,142.59,423.44Zm-1.27.2.6.43,1.09-.17-.6-.43Zm-13.39,1.81.49.36q5.41-.57,10.8-1.34l-.58-.41Q133.3,424.86,127.93,425.45Zm8.37-94.88a3,3,0,0,0,1,.39c1.16,0,2.36,0,3.53,0,.71,0,1.4-.08,2.1-.08.42,0,.84.06,1.26.1l.16-.21-7.71-.33ZM112.83,321a13.6,13.6,0,0,0,5.45-.12L116,321l-.05,0,1.67-.16a18.65,18.65,0,0,0-2.16-.15C114.54,320.72,113.71,320.9,112.83,321Zm-83.2,19.79c.92-2.81,1.91-5.58,3-8.36l2.24-4.91.08-.72a110.44,110.44,0,0,0-9.67,30.64L25.19,359a38.28,38.28,0,0,0,1-4.09A107.36,107.36,0,0,1,29.63,340.84Zm51,85c-4.58-1-14.62-2.41-24.15-5.41,3.54,1.34,6.69,2,9.77,2.88l.22.1c-1.51-.33-3-.73-7.38-1.88a84.69,84.69,0,0,0,9.48,2.65A121.3,121.3,0,0,0,80.62,425.83Zm14.24,1.1c.1.05.14.12.25.13,1.92.07,3.84.11,5.76.13l-.27-.24c-1,0-2.08,0-3.13,0Zm-48.73-114c.7,2.74,1.38,5.67,2.27,8.71L52,331.55c1.32,3.44,2.49,7.08,4.06,10.67L61.38,353c3.28,7.52,8.16,14.46,12.51,21.63-3.28-5.46-6.45-10.42-9.23-15.32l-7.15-14.79-.3-.73,4,8.14a114.77,114.77,0,0,0,7.9,14.49c-4.71-7.21-7.1-13.61-9.52-18.39a93,93,0,0,1-4.92-11.26c-2.39-6.87-5.33-13.1-7-19.59-.41-1.62-.85-3.23-1.29-4.83Zm-5.82,25.33-2.82-7.73L37,331.57A121.47,121.47,0,0,0,31,350a69.59,69.59,0,0,0-2.24,17.84c0,7.41,2,15.24,6.07,21.22a35.23,35.23,0,0,0,8.85,9.47,52.38,52.38,0,0,0,12.11,7c9.09,4,19.71,6.31,30.68,7.37-3.37-3.81-7-7.38-10.08-11.48C60.94,382.59,49.08,360.93,40.31,338.22Zm3.21-35.83.13-.21c-.35-1.44-.69-2.89-1-4.36A43.16,43.16,0,0,0,43.52,302.39ZM393.62,84.85c1.45-.13,2.9-.25,4.35-.36a221.83,221.83,0,0,0-64.24-36.64c-5.31-1.89-10.93-4-14.51-4.54L303.86,39.7c-6.8-1.34-15.1-2.23-23.78-3.55l-13.4-.6c-4.51-.12-9-.64-13.41-.2L240.52,36l-5.91.32-5.44.81-15,2.16c-18.2,4.06-18.26,3.18-43.56,13.37,6.83-2.41,13.77-4.58,20.36-6.78,6.75-1.69,13.29-3,19.18-4.31,4.48-1,3.54-.38,5.08-.48-4.31.69-8.49,2.07-12.75,3.07-4.21,1.2-8.55,1.94-12.64,3.52l-12.31,4.51c-2,.78-4.13,1.43-6.11,2.32l-5.89,2.83c-5.35,2.73-10.91,4.7-15.61,7.72-31.22,18.13-58.79,43.24-77.65,74.17-19.17,30.6-31.14,65.9-33,102-.13,3-.25,5.93-.38,8.79a5,5,0,0,0,.16-.87A216.85,216.85,0,0,1,58.4,165.64a219.06,219.06,0,0,1,50.25-69.56l9.82-8.9,10.62-8C136,73.54,144,69.53,151.42,64.74c7.72-4.15,14.35-7,19.55-9.6,5.36-2.22,9.58-3.51,12.56-4.59,6-2,7.35-2.27,5.36-1.12,4.48-1.92,9-2.67,13.24-3.92,4.25-1.08,8.27-2.29,12.23-3.15,8-1.17,15.54-2.75,23.24-3.45l15.9-.9c5.38-.53,10.84.28,16.3.38C295,39.91,318.63,45,340,53.82A234.17,234.17,0,0,1,393.62,84.85Zm13.62,7.82-5.55-5c-1.38.08-2.77.16-4.14.28l.53.42,5.43,4.88C404.86,93,406.13,92.85,407.24,92.66ZM318.72,384.89c-.77-.3-1.36-.74-2.23-1.11a37.55,37.55,0,0,1-7.49-3.66,34.36,34.36,0,0,1-4-3A14.78,14.78,0,0,1,303,374.9l-.41-.14a34.32,34.32,0,0,0,15.22,10.07Zm51.91-24.56c-.92,3-2.72,9.56-6.12,15.43a43.43,43.43,0,0,0,3.24-6.06l.11-.12a47.67,47.67,0,0,1-2.22,4.64,33.07,33.07,0,0,0,3.08-5.9A42.28,42.28,0,0,0,370.63,360.33ZM368.13,315l-1.59,1.07.32.32Zm52.3-46.36c-1.15.93-2.22,1.65-3.47,2.82l-11.18,10.29c-2.25,2-4.44,4.06-6.76,6l-4.2,3.45-.39.61q12.84-10.56,24.94-21.91ZM412.66,87.19c1.11,1,2.23,2,3.31,3.08a108.22,108.22,0,0,1,13.82.33A133.62,133.62,0,0,1,450.93,94c1.49.37,3.14.54,4.09.77,3.57.37,16.63,4.83,22.61,9.64,1.16.92,2.63,2.11,3.16,2.61,3.4,3.7,3.49,3.43,8.46,8.73-1.07-1.6-2.08-3.31-3.22-4.83l-3.43-4.2c-.89-.91-.53-.91-.74-1.33a68.6,68.6,0,0,1,5.44,4.94,63.19,63.19,0,0,1,4.59,5.69c.9,1.42,1.73,2.82,2.5,4.16a56,56,0,0,1,5.49,14,66.78,66.78,0,0,1,1.48,15.1c-.17,10.19-2.54,20.28-5.88,30l-.79,2.37c.08-.07.16-.09.2-.19,5.71-15.25,9.09-32,5.33-48.05a55.5,55.5,0,0,0-5.58-13.87l-3.39-5.12c-1-1.27-1.8-2.25-2.32-3-1-1.47-1.13-1.94-.42-1.72a62,62,0,0,0-11.27-8.83,72.8,72.8,0,0,0-8.12-4.36C456,90.54,443,88.4,430.42,87.7c-4.26-.27-10-.53-15.1-.57Zm.82,11.13-.93-.84h-4.28l2.27,2.05Zm1.76,5.6a1.49,1.49,0,0,1-.25,0c-.05,0,0,0-.17,0h0l.2.21C415.28,104,415.36,103.91,415.24,103.92Zm1.27,1.83,2.85-1.18-2.24-2.43-.27.14c-.39.22-.82.4-.79.28a.44.44,0,0,1,.08-.11c.36-.35.35-.36,0-.13l-1,.92-1.49-1.49v.9l.72.78.09,0,.22,0-.1.13s.05.06.05.06l.46-.39.06-.05,1.38,1.38-.78.32Zm57.35,89.05a139.3,139.3,0,0,0-5.51-16.56l-3.26-8.67c-1.14-2.88-2.69-5.56-4-8.25-2.78-5.28-5.09-10.37-7.58-14.18-5-7.6-7.94-11.6-6-7.82,2.76,5.56-.23.5-7.84-10.3l-6.88-8.89-4-5.18-4.76-5.21c-1.28-1.37-2.59-2.8-3.92-4.26l-2.85,1.18,8.6,9.45c2.88,3.65,5.58,7.4,8.29,11a218.74,218.74,0,0,1,35.42,75l0,.06Q471.85,198.51,473.86,194.81Zm.51,51.17-.12-.68-.51.67c.14.09-.34,1,.53.11Zm1.28-59.18c.28,1,.56,2,.84,2.95,1.47-2.95,2.84-5.92,4.08-8.91.81-2.12,1.9-4.58,2.35-6.34,3.62-10.87,5.74-24.53,5.14-32.26a38.67,38.67,0,0,0-3.19-13.18l0,.48a42,42,0,0,1-2.86-3.72A50.36,50.36,0,0,0,472.27,115a48.67,48.67,0,0,0-13.77-8l1.88-.15c-8.14-3.33-11-4-11.18-4.4s1.85-.32,2.33-.59a144.58,144.58,0,0,0-20-3.45c-2.68-.29-5.43-.49-8.19-.63,20.62,21.82,36.84,47.64,46,71.7Zm6.19,45-1.68-8.89-.24-1.38q-2.49,3.71-5.12,7.29c.51,4.25.81,8,1,11.26Q478.89,236,481.84,231.84Zm2.45-27c2-3.67,3.44-7,5-10.53-1.69,2.9-4.59,8.44-8,14.52l0,.26,1.41-2.35.15-.17c-.39.77-.82,1.52-1.53,2.74l0,.26C482.87,207.35,483.77,205.87,484.29,204.81Zm-.43,24.09-1.11-6.44c.41,2.34.71,4.58.94,6.69ZM282.93,134.15,286.7,132l-1.57-.15c4.67-.21,2.36-1.16,6.18-1.5L287.6,130c1.22-.3,2.66-.52,2-1-.55-.38,1.76-.86,2.52-1.31.31-.18-.32-.4-.15-.6a1.62,1.62,0,0,1,1.3-.67c2-.11,2.91-.85,6-.32a9.94,9.94,0,0,0,1.47,0,137.76,137.76,0,0,1,15,.11c3.21.17,6.88.16,10.31.14,4.07,0,8.08-.23,12.15-.26,4.69,0,9.41,0,14.12,0,.91,0,2,0,2.7-.07a63.27,63.27,0,0,1,14.08.3c1.52.24,4.32.26,6.54.37l-.22-.2a6.8,6.8,0,0,1,2.31-.72,33.83,33.83,0,0,1,7.21.2c1.71.25,4.51.28,7.14.43l-.72.85c7.43.14,4.43,1,4.12,1.8,2.84-.08,5.44-.23,8-.21a89.91,89.91,0,0,1,11.65.46c.77.12,2.73,0,4,0s2.28.25,3.41.37l-2,.47c2.37.34,3.6.78,1.38,1.36-.51.13.07.37,0,.56-.29.5-1.28,1-5.94,1.15-2.43.06-5.27,1.18-4.42,1.72,1.24.78-2.34,1.51-7.09,1.46-2.63,0-5.29,0-7.91,0a5.34,5.34,0,0,0-1.54.32,41.93,41.93,0,0,1-9.22.79,10.17,10.17,0,0,1-1.54-.14c-1.9-.5-1.87-.5-4.63-.07,1.47.49,2.95.94,4.18,1.41.47.18.36.4.52.6-1.79,0-3.59,0-5.37,0-.62,0-1.21-.17-1.78-.16q-11.11.11-22.21.26c-.31,0-.61,0-.9.06,0,0,.05.11.09.11q8.86.08,17.73.15c1.81,0,3.63-.06,5.45-.07,3.6,0,4.63.17,4.17,1,2-.15,3.55-.27,5.14-.37,1.07-.07,2.19-.14,3.31-.16,5.19-.06,9.81-.39,14.37-.78,1.54-.13,3.61-.09,5.44-.13,2.85-.06,5.74-.1,8.54-.19,4.47-.15,6.21.12,5.36.86a13.77,13.77,0,0,0-1.49,1.71c-2.15,0-3.56.33-3,.87l-15.52.22.33-.1c-.77-.07-1.53-.19-2.31-.19-5.23,0-10.47,0-15.71,0-.69,0-1.41,0-2.07,0-2.7-.1-3.47-.08-3.17.28.55.66-2.46.73-4.56.89-5.53.45-11.49.66-17.42.92-4.73.21-9.77.18-14.3.52-.87.07-2,0-3,0-4.18,0-8.16-.38-12.49-.16a9.25,9.25,0,0,1-2.23-.27,3.42,3.42,0,0,1-1.11-.8l-3-.12.94-.25c-2.42.07-4.47.18-6.49.17s-4-.17-6.18-.27l-.38.39-4.85-.06,1.08-.13c-.06-.34-.6-.64,0-.86a19.82,19.82,0,0,1,3.61-.31c1.4,0,2,0,2.4-.31a20.65,20.65,0,0,1,3.31-.54c2.86-.44,1.92-1,2.1-1.55.06-.19-.09-.38-.17-.65l-2.38-.25,3.94-.36-.23.34c.6,0,1.52,0,1.76,0,1.9-.39,4-.76,5.4-1.2,1.91-.58-2.25-1.3-5.47-1.36-4.07-.08-8.23,0-12.34-.06-1.69,0-3.39,0-5.18-.11l8.26-.24c0-.05,0-.1,0-.15-.92,0-1.83-.08-2.74-.07a16.8,16.8,0,0,1-4.26-.34,21,21,0,0,0-5-.26c-2.8.06-6.66.35-8.65-.27-.75-.23-.12-.59-.12-.88Zm57.54,5.58,3.52,0,.08,0-2.62.16c1.76.09,2.78.2,3.39.15,1.5-.11,2.81-.29,4.19-.44A33.38,33.38,0,0,0,340.47,139.72Zm-41-9.81,12.12.33.6-.17a6.65,6.65,0,0,0-1.63-.39c-1.82,0-3.7,0-5.55,0-1.11,0-2.2.08-3.3.08-.66,0-1.32-.06-2-.1Zm56.44,19.67c.59.74,4,.51,6.27.64a8.52,8.52,0,0,0,3.84-.39,14.61,14.61,0,0,1,6.8-1.09c3.76.53,7.54.11,10.6.14-.71-.39-1.39-.73-2-1.08s-1.14-.76-1.72-1.15c-2,0-4.61.15-6.77,0a63.4,63.4,0,0,0-7.78.27c-3.82.21-7.79.35-12.1.53a10.72,10.72,0,0,0-1.46.66c-.19.12,0,.3.43.41C353.27,148.92,355.57,149.23,355.86,149.59Zm-64,3.38a15.1,15.1,0,0,0-2.43.18c-3.65.63-2,1.7,2.53,2.17,4.85.5,10,.26,15.06.37,1.33,0,2.7,0,4,0l.45-.19-12.71-1.93-.78.1.78-.47C296.33,153.12,294.12,153,291.85,153ZM244.52,275.29l-5.15,2.19,2.14.15c-6.37.21-3.21,1.16-8.43,1.5l5.06.34c-1.66.3-3.63.52-2.67,1,.75.38-2.39.86-3.44,1.31-.42.18.43.4.2.6a2.48,2.48,0,0,1-1.77.67c-2.7.11-4,.85-8.21.32a18.46,18.46,0,0,0-2,0c-6.94.27-13.55.16-20.44-.11-4.37-.17-9.38-.16-14.07-.14-5.54,0-11,.23-16.57.26-6.4,0-12.83,0-19.25,0-1.24,0-2.68,0-3.68.07a117.42,117.42,0,0,1-19.2-.3c-2.07-.24-5.89-.26-8.91-.37l.3.2a11.81,11.81,0,0,1-3.15.72,62.82,62.82,0,0,1-9.83-.2c-2.34-.25-6.15-.28-9.73-.43l1-.85c-10.13-.14-6-1-5.62-1.8-3.88.08-7.42.23-10.89.21-5.42,0-11.17.06-15.89-.46-1.05-.12-3.72,0-5.41,0s-3.11-.25-4.65-.37l2.72-.47c-3.24-.34-4.9-.78-1.88-1.36.69-.13-.09-.37.06-.56.39-.5,1.75-1,8.1-1.15,3.31-.06,7.19-1.18,6-1.72-1.69-.78,3.2-1.51,9.67-1.46,3.59,0,7.21,0,10.78,0a9.61,9.61,0,0,0,2.1-.32,77.42,77.42,0,0,1,12.57-.79,18.79,18.79,0,0,1,2.1.14c2.58.5,2.54.5,6.32.07-2-.49-4-.94-5.7-1.41-.64-.18-.49-.4-.71-.6,2.44,0,4.89,0,7.32,0,.84,0,1.65.17,2.43.16q15.15-.11,30.29-.26c.42,0,.83,0,1.23-.06,0,0-.07-.11-.12-.11q-12.08-.08-24.17-.15c-2.47,0-5,.06-7.44.07-4.91,0-6.31-.17-5.68-1-2.73.15-4.84.27-7,.37-1.46.07-3,.14-4.52.16-7.08.06-13.38.39-19.6.78-2.1.13-4.93.09-7.42.13-3.89.06-7.82.1-11.65.19-6.1.15-8.47-.12-7.3-.86a16.24,16.24,0,0,0,2-1.71c2.94,0,4.86-.33,4.11-.87l21.17-.22-.45.1c1,.07,2.09.19,3.15.19q10.71,0,21.42,0c.94,0,1.93,0,2.83,0,3.68.1,4.73.08,4.32-.28-.75-.66,3.36-.73,6.21-.89,7.54-.45,15.67-.66,23.76-.92,6.46-.21,13.32-.18,19.51-.52,1.19-.07,2.75,0,4.14,0,5.7,0,11.13.38,17,.16a17,17,0,0,1,3,.27,4.88,4.88,0,0,1,1.52.8l4,.12-1.29.25c3.3-.07,6.1-.18,8.85-.17s5.42.17,8.43.27l.51-.39,6.62.06-1.47.13c.09.34.82.64,0,.86a36.56,36.56,0,0,1-4.92.31c-1.91,0-2.73,0-3.28.31a37.65,37.65,0,0,1-4.51.54c-3.9.44-2.62,1-2.86,1.55-.09.19.13.38.23.65l3.24.25-5.37.36.31-.34c-.83,0-2.07,0-2.41,0-2.59.39-5.41.76-7.36,1.2-2.6.58,3.06,1.3,7.45,1.36,5.55.08,11.22,0,16.83.06,2.31,0,4.62,0,7.07.11l-11.27.24c0,.05,0,.1,0,.15,1.25,0,2.5.08,3.74.07a31,31,0,0,1,5.81.34,38.8,38.8,0,0,0,6.88.26c3.82-.06,9.08-.35,11.8.27,1,.23.17.59.17.88Zm-78.46-5.58-4.8,0-.11,0,3.58-.16c-2.41-.09-3.79-.2-4.63-.15-2,.11-3.83.29-5.71.44A62,62,0,0,0,166.05,269.71Zm56,9.81-16.53-.33-.82.17a11.87,11.87,0,0,0,2.23.39c2.48,0,5,0,7.57,0,1.51,0,3-.08,4.51-.08.9,0,1.8.06,2.71.1Zm131.41-75.34a8.06,8.06,0,0,0-1.76.18c-2.65.63-1.48,1.7,1.84,2.17,3.53.5,7.31.26,11,.37,1,0,2,0,2.94,0l.33-.19-9.24-1.93-.57.1.57-.47C356.69,204.34,355.08,204.23,353.43,204.18ZM384,205.59a17.18,17.18,0,0,1,2.1.64l6.37-.69a3,3,0,0,0,.83-.18c1.38-.75-2-1.72-5.5-1.71-3.87,0-7.77-.08-11.61-.2-1.61-.05-2.48,0-2.83.36a21.51,21.51,0,0,0-2.18,2.28c-.1.13.49.33,1,.43,2.56.51,5.53.18,8.32.17,2.14,0,2.42-.21,1.4-.63-.31-.12-.06-.32-.06-.49A17.89,17.89,0,0,1,384,205.59Zm-50.14-51.21c1.25.19,2.09.45,2.89.64l8.76-.69a5.55,5.55,0,0,0,1.14-.18c1.89-.75-2.73-1.72-7.56-1.71-5.32,0-10.69-.08-16-.2-2.22-.05-3.41,0-3.89.36a26.76,26.76,0,0,0-3,2.28c-.14.13.68.33,1.38.43,3.52.51,7.61.18,11.44.17,2.95,0,3.33-.21,1.92-.63-.42-.12-.08-.32-.08-.49C331.86,154.36,333.24,154.29,333.82,154.38ZM482.75,278.17q-.11.81-.23,1.62ZM316.44,450l1.29-.42A11.46,11.46,0,0,1,316.44,450Zm97.19-348.24c0,.11,0,.2,0,.32l0-.27,0,.17c0-.13,0-.18,0-.25v-.07Zm64.94,112v0l-.8,1.34ZM393,88.36h0l.32.24Z"/></svg>